<svg width="1000" height="300" viewBox="0 0 1000 300" fill="none" xmlns="http://www.w3.org/2000/svg" xmlns:xlink="http://www.w3.org/1999/xlink">
<g opacity="0.99">
<rect width="1000" height="300" fill="url(#paint0_radial_17_2)"/>
<rect width="1000" height="300" fill="url(#pattern0_17_2)" fill-opacity="0.2"/>
</g>
<defs>
<radialGradient id="paint0_radial_17_2" cx="0" cy="0" r="1" gradientUnits="userSpaceOnUse" gradientTransform="translate(500 150) scale(621 581.643)">
<stop stop-color="#009D7E"/>
<stop offset="1" stop-color="#4C009D"/>
</radialGradient>
<pattern id="pattern0_17_2" patternUnits="userSpaceOnUse" viewBox="812 -285 48 96" width="4.7999999999999998%" height="32%" x="488" y="138" patternContentUnits="objectBoundingBox">
<g id="pattern0_17_2_inner">
<path d="M774.3 -278.26C774.367 -278.188 774.419 -278.103 774.453 -278.011C774.488 -277.918 774.503 -277.82 774.5 -277.722C774.496 -277.623 774.473 -277.527 774.432 -277.437C774.391 -277.348 774.332 -277.267 774.26 -277.2L771.352 -274.5L774.26 -271.8C774.332 -271.733 774.391 -271.653 774.432 -271.563C774.473 -271.473 774.496 -271.377 774.5 -271.278C774.503 -271.18 774.488 -271.082 774.453 -270.989C774.419 -270.897 774.367 -270.812 774.3 -270.74C774.233 -270.668 774.152 -270.609 774.063 -270.568C773.973 -270.527 773.877 -270.504 773.778 -270.5C773.68 -270.497 773.582 -270.512 773.489 -270.547C773.397 -270.581 773.312 -270.633 773.24 -270.7L769.74 -273.95C769.664 -274.02 769.604 -274.105 769.563 -274.2C769.521 -274.295 769.5 -274.397 769.5 -274.5C769.5 -274.603 769.521 -274.705 769.563 -274.8C769.604 -274.895 769.664 -274.98 769.74 -275.05L773.24 -278.3C773.312 -278.367 773.397 -278.419 773.489 -278.453C773.582 -278.488 773.68 -278.503 773.778 -278.5C773.877 -278.496 773.973 -278.473 774.063 -278.432C774.152 -278.391 774.233 -278.332 774.3 -278.26ZM777.74 -277.2C777.594 -277.335 777.508 -277.523 777.5 -277.722C777.493 -277.921 777.565 -278.114 777.7 -278.26C777.835 -278.406 778.023 -278.492 778.222 -278.5C778.42 -278.507 778.614 -278.435 778.76 -278.3L782.26 -275.05C782.336 -274.98 782.396 -274.895 782.437 -274.8C782.479 -274.705 782.5 -274.603 782.5 -274.5C782.5 -274.397 782.479 -274.295 782.437 -274.2C782.396 -274.105 782.336 -274.02 782.26 -273.95L778.76 -270.7C778.614 -270.565 778.42 -270.493 778.222 -270.5C778.023 -270.508 777.835 -270.594 777.7 -270.74C777.565 -270.886 777.493 -271.08 777.5 -271.278C777.508 -271.477 777.594 -271.665 777.74 -271.8L780.648 -274.5L777.74 -277.2Z" fill="white"/>
<path d="M765.5 -280.75C765.5 -281.716 766.284 -282.5 767.25 -282.5H784.75C785.716 -282.5 786.5 -281.716 786.5 -280.75V-268.25C786.5 -267.786 786.316 -267.341 785.987 -267.013C785.659 -266.684 785.214 -266.5 784.75 -266.5H775.06L771.487 -262.927C771.283 -262.724 771.024 -262.586 770.741 -262.53C770.459 -262.474 770.166 -262.503 769.9 -262.613C769.634 -262.723 769.407 -262.909 769.247 -263.149C769.086 -263.388 769.001 -263.669 769 -263.957V-266.5H767.25C766.786 -266.5 766.341 -266.684 766.013 -267.013C765.684 -267.341 765.5 -267.786 765.5 -268.25V-280.75ZM767.25 -281C767.184 -281 767.12 -280.974 767.073 -280.927C767.026 -280.88 767 -280.816 767 -280.75V-268.25C767 -268.112 767.112 -268 767.25 -268H769.75C769.949 -268 770.14 -267.921 770.28 -267.78C770.421 -267.64 770.5 -267.449 770.5 -267.25V-264.06L774.22 -267.78C774.29 -267.85 774.372 -267.905 774.463 -267.943C774.554 -267.981 774.652 -268 774.75 -268H784.75C784.816 -268 784.88 -268.026 784.927 -268.073C784.974 -268.12 785 -268.184 785 -268.25V-280.75C785 -280.816 784.974 -280.88 784.927 -280.927C784.88 -280.974 784.816 -281 784.75 -281H767.25Z" fill="white"/>
</g>
<use xlink:href="#pattern0_17_2_inner" transform="translate(48 0)"/>
<use xlink:href="#pattern0_17_2_inner" transform="translate(24 48)"/>
<use xlink:href="#pattern0_17_2_inner" transform="translate(72 48)"/>
</pattern></defs>
</svg>
